<svg width="182" height="84" viewBox="0 0 182 84" fill="none" xmlns="http://www.w3.org/2000/svg">
<path fill-rule="evenodd" clip-rule="evenodd" d="M24.4561 15.6162V65H66.1371C60.3274 76.2832 48.5649 84 35 84C15.67 84 0 68.33 0 49C0 33.3445 10.2789 20.0896 24.4561 15.6162ZM41.3311 14.5712V51.2954H69.9259C69.9751 50.5366 70 49.7712 70 49C70 31.8318 57.6388 17.5507 41.3311 14.5712Z" fill="#D9D9D9"/>
<path d="M97.2847 65.4119C94.993 65.4119 93.0233 64.9432 91.3756 64.0057C89.7373 63.0587 88.4731 61.7424 87.583 60.0568C86.7023 58.3617 86.262 56.3968 86.262 54.1619C86.262 51.9176 86.7023 49.9526 87.583 48.267C88.4731 46.5719 89.7373 45.2557 91.3756 44.3182C93.0233 43.3712 94.993 42.8977 97.2847 42.8977C99.5764 42.8977 101.541 43.3712 103.18 44.3182C104.827 45.2557 106.092 46.5719 106.972 48.267C107.862 49.9526 108.307 51.9176 108.307 54.1619C108.307 56.3968 107.862 58.3617 106.972 60.0568C106.092 61.7424 104.827 63.0587 103.18 64.0057C101.541 64.9432 99.5764 65.4119 97.2847 65.4119ZM97.3273 60.1704C98.1606 60.1704 98.8661 59.9148 99.4438 59.4034C100.021 58.892 100.462 58.1818 100.765 57.2727C101.077 56.3636 101.234 55.3125 101.234 54.1193C101.234 52.9072 101.077 51.8466 100.765 50.9375C100.462 50.0284 100.021 49.3182 99.4438 48.8068C98.8661 48.2954 98.1606 48.0398 97.3273 48.0398C96.4656 48.0398 95.7364 48.2954 95.1398 48.8068C94.5527 49.3182 94.1029 50.0284 93.7904 50.9375C93.4873 51.8466 93.3358 52.9072 93.3358 54.1193C93.3358 55.3125 93.4873 56.3636 93.7904 57.2727C94.1029 58.1818 94.5527 58.892 95.1398 59.4034C95.7364 59.9148 96.4656 60.1704 97.3273 60.1704Z" fill="#D9D9D9"/>
<path d="M122.036 73.6363C119.962 73.6363 118.187 73.3475 116.709 72.7699C115.232 72.1922 114.072 71.4015 113.229 70.3977C112.386 69.3939 111.88 68.2576 111.709 66.9886L118.286 66.6193C118.409 67.0644 118.636 67.4526 118.968 67.7841C119.309 68.1155 119.749 68.3712 120.289 68.5511C120.838 68.731 121.482 68.821 122.221 68.821C123.386 68.821 124.347 68.5369 125.104 67.9687C125.871 67.41 126.255 66.4299 126.255 65.0284V61.1932H126.013C125.739 61.8655 125.322 62.4668 124.763 62.9971C124.205 63.5274 123.509 63.9441 122.675 64.2471C121.851 64.5502 120.904 64.7017 119.834 64.7017C118.243 64.7017 116.785 64.3324 115.459 63.5937C114.143 62.8456 113.087 61.6903 112.292 60.1278C111.506 58.5558 111.113 56.5341 111.113 54.0625C111.113 51.5151 111.52 49.4176 112.334 47.7699C113.149 46.1127 114.214 44.8863 115.53 44.0909C116.856 43.2954 118.281 42.8977 119.806 42.8977C120.952 42.8977 121.932 43.0966 122.746 43.4943C123.57 43.8826 124.247 44.3844 124.778 45C125.308 45.6155 125.71 46.2547 125.985 46.9176H126.184V43.1818H133.101V65.0852C133.101 66.9318 132.637 68.4896 131.709 69.7585C130.781 71.0274 129.484 71.9886 127.817 72.642C126.151 73.3049 124.224 73.6363 122.036 73.6363ZM122.249 59.6449C123.092 59.6449 123.812 59.4223 124.408 58.9772C125.005 58.5322 125.464 57.893 125.786 57.0596C126.108 56.2263 126.269 55.2272 126.269 54.0625C126.269 52.8788 126.108 51.8608 125.786 51.0085C125.474 50.1468 125.014 49.4839 124.408 49.0199C123.812 48.5558 123.092 48.3238 122.249 48.3238C121.387 48.3238 120.658 48.5606 120.062 49.0341C119.465 49.5076 119.011 50.1752 118.698 51.0369C118.395 51.8892 118.243 52.8977 118.243 54.0625C118.243 55.2272 118.4 56.2263 118.712 57.0596C119.025 57.893 119.475 58.5322 120.062 58.9772C120.658 59.4223 121.387 59.6449 122.249 59.6449Z" fill="#D9D9D9"/>
<path d="M147.714 65.4119C145.423 65.4119 143.453 64.9432 141.805 64.0057C140.167 63.0587 138.903 61.7424 138.013 60.0568C137.132 58.3617 136.692 56.3968 136.692 54.1619C136.692 51.9176 137.132 49.9526 138.013 48.267C138.903 46.5719 140.167 45.2557 141.805 44.3182C143.453 43.3712 145.423 42.8977 147.714 42.8977C150.006 42.8977 151.971 43.3712 153.609 44.3182C155.257 45.2557 156.521 46.5719 157.402 48.267C158.292 49.9526 158.737 51.9176 158.737 54.1619C158.737 56.3968 158.292 58.3617 157.402 60.0568C156.521 61.7424 155.257 63.0587 153.609 64.0057C151.971 64.9432 150.006 65.4119 147.714 65.4119ZM147.757 60.1704C148.59 60.1704 149.296 59.9148 149.873 59.4034C150.451 58.892 150.891 58.1818 151.194 57.2727C151.507 56.3636 151.663 55.3125 151.663 54.1193C151.663 52.9072 151.507 51.8466 151.194 50.9375C150.891 50.0284 150.451 49.3182 149.873 48.8068C149.296 48.2954 148.59 48.0398 147.757 48.0398C146.895 48.0398 146.166 48.2954 145.569 48.8068C144.982 49.3182 144.533 50.0284 144.22 50.9375C143.917 51.8466 143.766 52.9072 143.766 54.1193C143.766 55.3125 143.917 56.3636 144.22 57.2727C144.533 58.1818 144.982 58.892 145.569 59.4034C146.166 59.9148 146.895 60.1704 147.757 60.1704Z" fill="#D9D9D9"/>
<path d="M181.344 49.8437L174.966 50.0142C174.9 49.5596 174.72 49.1572 174.426 48.8068C174.132 48.4469 173.749 48.1676 173.275 47.9687C172.811 47.7604 172.272 47.6562 171.656 47.6562C170.851 47.6562 170.165 47.8172 169.596 48.1392C169.038 48.4612 168.763 48.8968 168.773 49.446C168.763 49.8721 168.934 50.2415 169.284 50.554C169.644 50.8665 170.283 51.1174 171.202 51.3068L175.406 52.1023C177.584 52.5189 179.203 53.2102 180.264 54.1761C181.334 55.142 181.874 56.4204 181.883 58.0113C181.874 59.5076 181.429 60.8096 180.548 61.9176C179.677 63.0255 178.484 63.8873 176.969 64.5028C175.453 65.1089 173.721 65.4119 171.77 65.4119C168.654 65.4119 166.197 64.7727 164.398 63.4943C162.608 62.2064 161.585 60.4829 161.329 58.3238L168.19 58.1534C168.342 58.9488 168.735 59.5549 169.369 59.9716C170.004 60.3882 170.813 60.5966 171.798 60.5966C172.688 60.5966 173.413 60.4308 173.971 60.0994C174.53 59.768 174.814 59.3276 174.824 58.7784C174.814 58.286 174.596 57.893 174.17 57.5994C173.744 57.2964 173.077 57.0596 172.168 56.8892L168.361 56.1648C166.173 55.767 164.544 55.0331 163.474 53.963C162.404 52.8835 161.874 51.5104 161.883 49.8437C161.874 48.3854 162.262 47.1401 163.048 46.1079C163.834 45.0663 164.952 44.2708 166.4 43.7216C167.849 43.1723 169.559 42.8977 171.528 42.8977C174.483 42.8977 176.812 43.518 178.517 44.7585C180.221 45.9896 181.164 47.6846 181.344 49.8437Z" fill="#D9D9D9"/>
</svg>
