<svg width="39" height="34" viewBox="0 0 39 34" fill="none" xmlns="http://www.w3.org/2000/svg">
<path d="M31.7698 26.2283H12.0676C10.541 26.2283 9.33768 25.1247 9.2054 23.6041C9.1155 22.5656 9.55086 21.6328 10.315 21.0617L7.22678 7.23409C7.14159 6.85352 7.23406 6.4554 7.47764 6.15103C7.72122 5.84666 8.09023 5.66986 8.47979 5.66986H37.4578C37.8739 5.66986 38.2643 5.87149 38.5049 6.21053C38.7459 6.54958 38.8071 6.98451 38.6701 7.37707L35.3319 16.9422C34.8649 18.2821 33.706 19.2663 32.3083 19.5103L12.0218 23.0553C12.0171 23.0557 12.0128 23.0566 12.0081 23.0574C11.9105 23.0745 11.7414 23.1114 11.7649 23.3823C11.7889 23.6597 11.9704 23.6597 12.068 23.6597H31.7702C32.4796 23.6597 33.0545 24.2347 33.0545 24.944C33.0545 25.6533 32.4791 26.2283 31.7698 26.2283Z" fill="#797979"/>
<path d="M12.3077 33.4458C13.8445 33.4458 15.0903 32.2 15.0903 30.6632C15.0903 29.1265 13.8445 27.8807 12.3077 27.8807C10.771 27.8807 9.52518 29.1265 9.52518 30.6632C9.52518 32.2 10.771 33.4458 12.3077 33.4458Z" fill="#797979"/>
<path d="M29.4483 33.4458C30.985 33.4458 32.2308 32.2 32.2308 30.6632C32.2308 29.1265 30.985 27.8807 29.4483 27.8807C27.9115 27.8807 26.6657 29.1265 26.6657 30.6632C26.6657 32.2 27.9115 33.4458 29.4483 33.4458Z" fill="#797979"/>
<path d="M8.47892 8.2388C7.89073 8.2388 7.36033 7.83212 7.22677 7.23408L6.63815 4.59921C6.40099 3.53756 5.47547 2.79612 4.38728 2.79612H1.49855C0.789214 2.79612 0.214294 2.2212 0.214294 1.51186C0.214294 0.80252 0.789214 0.2276 1.49855 0.2276H4.3877C6.68738 0.2276 8.64373 1.79525 9.14502 4.03928L9.73364 6.67415C9.88818 7.36636 9.45239 8.05301 8.76017 8.20755C8.66557 8.22853 8.57139 8.2388 8.47892 8.2388Z" fill="#797979"/>
</svg>
